General

Format                           : MPEG-4
Format profile                   : Base Media
Codec ID                         : isom
File size                        : 103 MiB
Duration                         : 4mn 8s
Overall bit rate                 : 3 477 Kbps
Encoded date                     : UTC 2012-05-28 16:35:43
Tagged date                      : UTC 2012-05-28 16:35:43

Video
ID                               : 1
Format                           : AVC
Format/Info                      : Advanced Video Codec
Format profile                   : High@L3.0
Format settings, CABAC           : Yes
Format settings, ReFrames        : 2 frames
Codec ID                         : avc1
Codec ID/Info                    : Advanced Video Coding
Duration                         : 4mn 8s
Bit rate mode                    : Variable
Bit rate                         : 3 410 Kbps
Nominal bit rate                 : 3 586 Kbps
Maximum bit rate                 : 14.2 Mbps
Width                            : 720 pixels
Height                           : 480 pixels
Display aspect ratio             : 16:9
Original display aspect ratio    : 16:9
Frame rate mode                  : Constant
Frame rate                       : 23.976 fps
Standard                         : NTSC
Color space                      : YUV
Chroma subsampling               : 4:2:0
Bit depth                        : 8 bits
Scan type                        : Progressive
Bits/(Pixel*Frame)               : 0.412
Stream size                      : 101 MiB (98%)


Audio
ID                               : 2
Format                           : AAC
Format/Info                      : Advanced Audio Codec
Format profile                   : LC
Codec ID                         : 40
Duration                         : 4mn 8s
Bit rate mode                    : Variable
Bit rate                         : 60.4 Kbps
Maximum bit rate                 : 74.6 Kbps
Channel(s)                       : 2 channels
Channel positions                : Front: L R
Sampling rate                    : 44.1 KHz
Compression mode                 : Lossy
Stream size                      : 1.79 MiB (2%)
